# xmcd
#
# Track frame offsets:
#	150
#	15541
#	36773
#	60209
#	83427
#	104620
#	127602
#	147986
#	165918
#	182324
#
# Disc length: 2750 seconds
#
# Revision: 2
# Processed by: cddbd v1.5.2PL0 Copyright (c) Steve Scherf et al.
# Submitted via: EZCDAudioConverter 8.0.2.1
#
DISCID=650abc0a
DTITLE=Various Artist - Mẹ Fatima [CD2)
DYEAR=2017
DGENRE=Contemporary Pop
TTITLE0=Ngọc Anh - Dear Lady Of Fatima
TTITLE1=Hoàng Anh Thư - Trái tim vô nhiễm
TTITLE2=Khánh Hà - Dâng Mẹ
TTITLE3=V.A - Bless The Lord
TTITLE4=V.A - Mẹ là bóng mát
TTITLE5=Y Phương - Lời xưa mẹ nhắn
TTITLE6=Tuán Vũ and Bích Đào - Chuông Chiều
TTITLE7=V.A - Dâng mẹ La Vang
TTITLE8=V.A - Mẹ tình yêu
TTITLE9=V.A - Salve Regina Nữ vương hòa bình
EXTD=
EXTT0=
EXTT1=
EXTT2=
EXTT3=
EXTT4=
EXTT5=
EXTT6=
EXTT7=
EXTT8=
EXTT9=
PLAYORDER=
